if (_typeface_js && _typeface_js.loadFace) _typeface_js.loadFace({"glyphs":{"0":{"ha":1119,"x_min":31,"x_max":1089,"o":"m 31 444 l 31 528 q 99 770 31 665 q 286 935 167 875 q 560 994 406 994 q 834 935 715 994 q 1021 770 953 875 q 1089 528 1089 665 l 1089 444 q 1021 203 1089 308 q 834 38 953 97 q 560 -22 715 -22 q 286 38 406 -22 q 99 203 167 97 q 31 444 31 308 m 560 675 q 474 636 508 675 q 439 542 439 597 l 439 431 q 474 336 439 375 q 560 297 508 297 q 646 336 611 297 q 681 431 681 375 l 681 542 q 646 636 681 597 q 560 675 611 675 z "},"1":{"ha":867,"x_min":46,"x_max":851,"o":"m 46 281 l 265 281 l 265 636 q 167 605 218 615 q 46 594 115 594 l 46 861 q 205 897 132 872 q 342 972 278 921 l 654 972 l 654 281 l 851 281 l 851 0 l 46 0 l 46 281 z "},"2":{"ha":1049,"x_min":25,"x_max":1025,"o":"m 28 0 l 28 239 l 343 386 q 503 471 444 435 q 588 541 563 507 q 613 613 613 575 q 587 678 613 653 q 518 703 561 703 q 429 653 463 703 q 382 531 396 604 l 25 604 q 113 809 46 721 q 290 946 181 897 q 543 994 400 994 q 719 972 635 994 q 867 906 803 950 q 969 798 932 863 q 1007 650 1007 733 q 994 568 1007 610 q 947 481 982 526 q 847 387 913 436 q 674 281 781 338 l 1025 281 l 1011 0 l 28 0 z "},"3":{"ha":1050,"x_min":13,"x_max":1025,"o":"m 965 972 l 965 749 l 729 596 q 885 558 818 594 q 988 460 951 522 q 1025 318 1025 399 q 961 138 1025 214 q 785 19 897 61 q 525 -22 672 -22 q 288 12 394 -22 q 111 109 182 46 q 13 257 40 172 l 383 340 q 438 275 403 294 q 510 256 474 256 q 591 281 560 256 q 622 349 622 307 q 590 417 622 392 q 508 443 557 443 q 446 430 475 443 q 388 388 417 417 l 257 550 l 476 692 l 61 692 l 75 972 l 965 972 z "},"4":{"ha":1122,"x_min":24,"x_max":1101,"o":"m 24 153 l 24 378 l 318 972 l 717 972 l 442 433 l 593 433 l 593 597 l 954 735 l 954 433 l 1101 433 l 1101 153 l 954 153 l 954 0 l 593 0 l 593 153 l 24 153 z "},"5":{"ha":1063,"x_min":11,"x_max":1032,"o":"m 1032 335 q 971 155 1032 236 q 799 26 910 74 q 539 -22 689 -22 q 299 15 410 -22 q 114 122 189 53 q 11 286 39 192 l 396 350 q 444 277 407 299 q 518 256 481 256 q 597 283 565 256 q 629 350 629 311 q 597 417 629 392 q 515 443 564 443 q 404 388 451 443 l 74 515 l 224 972 l 985 972 l 971 692 l 508 692 l 475 596 q 563 622 515 614 q 660 631 611 631 q 845 596 761 631 q 981 495 929 561 q 1032 335 1032 429 z "},"6":{"ha":1074,"x_min":32,"x_max":1049,"o":"m 32 510 q 76 724 32 633 q 194 876 119 815 q 363 965 268 936 q 561 994 458 994 q 712 979 636 994 q 853 932 788 964 q 967 852 919 900 q 1035 738 1015 804 l 683 668 q 630 716 665 701 q 558 731 594 731 q 447 688 493 731 q 400 565 400 646 l 400 536 q 519 618 447 592 q 669 644 592 644 q 806 624 739 644 q 928 563 874 603 q 1016 463 983 522 q 1049 326 1049 404 q 990 146 1049 225 q 822 22 931 67 q 565 -22 714 -22 q 285 34 406 -22 q 99 194 165 90 q 32 440 32 297 l 32 510 m 547 238 q 624 262 594 238 q 654 324 654 286 l 654 332 q 624 394 654 371 q 547 418 594 418 q 470 394 500 418 q 440 332 440 371 l 440 324 q 470 262 440 286 q 547 238 500 238 z "},"7":{"ha":914,"x_min":14,"x_max":897,"o":"m 186 0 q 275 386 189 204 q 518 692 361 568 l 14 692 l 28 972 l 897 972 l 897 747 q 736 526 803 638 q 636 287 669 414 q 607 0 603 160 l 186 0 z "},"8":{"ha":1068,"x_min":24,"x_max":1044,"o":"m 535 -22 q 269 17 385 -22 q 89 126 154 57 q 24 288 24 196 q 64 415 24 356 q 188 510 104 475 q 93 599 124 544 q 63 711 63 654 q 123 860 63 796 q 290 959 183 924 q 535 994 396 994 q 779 959 674 994 q 945 860 885 924 q 1006 711 1006 796 q 975 599 1006 654 q 881 510 944 544 q 1004 415 964 475 q 1044 288 1044 356 q 980 126 1044 196 q 800 17 915 57 q 535 -22 685 -22 m 535 582 q 603 605 576 582 q 631 664 631 628 q 603 724 631 700 q 535 747 576 747 q 465 724 492 747 q 438 664 438 700 q 465 605 438 628 q 535 582 492 582 m 535 225 q 615 251 583 225 q 646 318 646 278 q 615 385 646 358 q 535 411 583 411 q 455 385 486 411 q 424 318 424 358 q 455 251 424 278 q 535 225 486 225 z "},"9":{"ha":1074,"x_min":25,"x_max":1042,"o":"m 1042 463 q 998 248 1042 339 q 880 97 954 157 q 710 7 806 36 q 513 -22 615 -22 q 362 -7 438 -22 q 220 40 286 8 q 106 120 154 72 q 39 235 58 168 l 390 304 q 444 256 408 271 q 515 242 479 242 q 627 284 581 242 q 674 407 674 326 l 674 436 q 554 354 626 381 q 404 328 482 328 q 267 349 335 328 q 145 410 200 369 q 58 509 90 450 q 25 646 25 568 q 84 827 25 749 q 251 950 143 906 q 508 994 360 994 q 789 938 669 994 q 975 778 908 882 q 1042 532 1042 675 l 1042 463 m 526 735 q 449 710 479 735 q 419 649 419 686 l 419 640 q 449 578 419 601 q 526 554 479 554 q 603 578 574 554 q 633 640 633 601 l 633 649 q 603 710 633 686 q 526 735 574 735 z "},"A":{"ha":1197,"x_min":-12,"x_max":1210,"o":"m -12 0 l 349 972 l 849 972 l 1210 0 l 813 0 l 767 151 l 433 151 l 385 0 l -12 0 m 539 486 l 508 390 l 696 390 l 667 486 l 617 696 l 592 696 l 539 486 z "},"B":{"ha":1131,"x_min":56,"x_max":1128,"o":"m 56 0 l 56 972 l 790 972 q 1020 906 943 972 q 1097 731 1097 839 q 1074 627 1097 676 q 995 544 1050 578 q 846 504 940 511 l 846 476 q 1060 406 993 468 q 1128 250 1128 344 q 1049 70 1128 140 q 835 0 971 0 l 56 0 m 439 593 l 640 593 q 682 608 667 593 q 697 649 697 624 q 682 689 697 674 q 640 704 667 704 l 439 704 l 439 593 m 439 268 l 663 268 q 704 283 689 268 q 719 324 719 299 q 704 364 719 349 q 663 379 689 379 l 439 379 l 439 268 z "},"C":{"ha":1163,"x_min":28,"x_max":1154,"o":"m 599 -22 q 303 38 432 -22 q 101 203 174 97 q 28 444 28 308 l 28 528 q 101 770 28 665 q 303 935 174 875 q 599 994 432 994 q 865 947 746 994 q 1062 816 985 900 q 1154 619 1139 732 l 756 539 q 706 635 750 596 q 599 675 663 675 q 483 632 531 675 q 436 528 436 589 l 436 444 q 483 340 436 383 q 599 297 531 297 q 706 337 663 297 q 756 433 750 376 l 1154 353 q 1062 157 1139 242 q 865 25 985 72 q 599 -22 746 -22 z "},"D":{"ha":1150,"x_min":56,"x_max":1122,"o":"m 56 0 l 56 972 l 551 972 q 848 915 719 972 q 1049 758 976 858 q 1122 526 1122 657 l 1122 446 q 1049 215 1122 315 q 848 57 976 114 q 551 0 719 0 l 56 0 m 444 314 l 551 314 q 667 354 621 314 q 714 453 714 394 l 714 519 q 667 618 714 578 q 551 658 621 658 l 444 658 l 444 314 z "},"E":{"ha":1007,"x_min":56,"x_max":969,"o":"m 56 0 l 56 972 l 969 972 l 969 692 l 444 692 l 444 606 l 819 606 l 819 367 l 444 367 l 444 281 l 969 281 l 969 0 l 56 0 z "},"F":{"ha":943,"x_min":56,"x_max":928,"o":"m 56 0 l 56 972 l 928 972 l 928 650 l 444 650 l 444 550 l 778 550 l 778 283 l 444 283 l 444 0 l 56 0 z "},"G":{"ha":1196,"x_min":29,"x_max":1154,"o":"m 496 -22 q 328 8 411 -22 q 178 96 246 38 q 69 242 110 154 q 29 444 29 329 l 29 529 q 102 778 29 674 q 304 938 175 882 q 600 994 433 994 q 844 957 731 994 q 1039 842 958 919 q 1149 644 1119 765 l 757 571 q 696 657 743 631 q 597 683 649 683 q 485 644 532 683 q 438 529 438 604 l 438 444 q 490 317 438 365 q 622 269 542 269 q 729 296 682 269 q 792 369 776 322 l 588 369 l 588 528 l 1154 528 l 1154 0 l 826 0 l 839 161 l 814 161 q 745 59 794 100 q 631 -2 696 18 q 496 -22 565 -22 z "},"H":{"ha":1167,"x_min":56,"x_max":1111,"o":"m 56 0 l 56 972 l 444 972 l 444 654 l 722 654 l 722 972 l 1111 972 l 1111 0 l 722 0 l 722 346 l 444 346 l 444 0 l 56 0 z "},"I":{"ha":500,"x_min":56,"x_max":444,"o":"m 56 0 l 56 972 l 444 972 l 444 0 l 56 0 z "},"J":{"ha":1065,"x_min":-12,"x_max":1018,"o":"m 501 -22 q 151 78 282 -22 q -12 363 21 178 l 342 433 q 396 333 354 369 q 500 297 438 297 q 629 449 629 297 l 629 650 l 240 650 l 240 972 l 1018 972 l 1018 397 q 881 87 1018 196 q 501 -22 744 -22 z "},"K":{"ha":1161,"x_min":56,"x_max":1194,"o":"m 56 0 l 56 972 l 444 972 l 444 682 l 731 972 l 1167 972 l 790 610 l 1194 0 l 722 0 l 522 353 l 444 278 l 444 0 l 56 0 z "},"L":{"ha":886,"x_min":56,"x_max":872,"o":"m 56 0 l 56 972 l 444 972 l 444 322 l 872 322 l 872 0 l 56 0 z "},"M":{"ha":1508,"x_min":56,"x_max":1453,"o":"m 56 0 l 56 972 l 592 972 l 754 517 l 917 972 l 1453 972 l 1453 0 l 1078 0 l 1078 507 l 897 0 l 611 0 l 431 507 l 431 0 l 56 0 z "},"N":{"ha":1208,"x_min":56,"x_max":1153,"o":"m 56 0 l 56 972 l 425 972 l 778 547 l 778 972 l 1153 972 l 1153 0 l 783 0 l 431 425 l 431 0 l 56 0 z "},"O":{"ha":1197,"x_min":28,"x_max":1169,"o":"m 28 444 l 28 528 q 101 770 28 665 q 303 935 174 875 q 599 994 432 994 q 895 935 767 994 q 1097 770 1024 875 q 1169 528 1169 665 l 1169 444 q 1097 203 1169 308 q 895 38 1024 97 q 599 -22 767 -22 q 303 38 432 -22 q 101 203 174 97 q 28 444 28 308 m 599 675 q 483 632 531 675 q 436 528 436 589 l 436 444 q 483 340 436 383 q 599 297 531 297 q 715 340 668 297 q 761 444 761 383 l 761 528 q 715 632 761 589 q 599 675 668 675 z "},"P":{"ha":1082,"x_min":56,"x_max":1072,"o":"m 56 0 l 56 972 l 738 972 q 915 929 840 972 q 1031 807 990 886 q 1072 618 1072 728 q 1031 419 1072 503 q 915 289 990 335 q 738 243 840 243 l 453 243 l 453 0 l 56 0 m 607 676 l 453 676 l 453 535 l 607 535 q 658 554 639 535 q 678 606 678 574 q 658 657 678 638 q 607 676 639 676 z "},"Q":{"ha":1221,"x_min":28,"x_max":1203,"o":"m 599 0 q 303 57 432 0 q 101 214 174 114 q 28 444 28 314 l 28 528 q 101 770 28 665 q 303 935 174 875 q 599 994 432 994 q 891 937 764 994 q 1090 778 1018 879 q 1161 543 1161 676 l 1161 533 q 1117 380 1161 446 q 988 281 1074 314 l 988 254 l 1203 285 l 1203 0 l 599 0 m 599 297 q 715 340 668 297 q 761 444 761 383 l 761 528 q 715 632 761 589 q 599 675 668 675 q 483 632 531 675 q 436 528 436 589 l 436 444 q 483 340 436 383 q 599 297 531 297 z "},"R":{"ha":1135,"x_min":56,"x_max":1108,"o":"m 711 176 q 614 274 711 274 l 453 274 l 453 0 l 56 0 l 56 972 l 801 972 q 1031 903 954 972 q 1108 721 1108 835 q 1085 613 1108 664 q 1006 526 1061 563 q 857 476 951 490 l 857 449 q 1006 408 951 435 q 1085 336 1061 382 q 1108 217 1108 290 l 1108 0 l 711 0 l 711 176 m 453 554 l 657 554 q 699 572 683 554 q 714 615 714 589 q 699 660 714 643 q 657 676 683 676 l 453 676 l 453 554 z "},"S":{"ha":1154,"x_min":13,"x_max":1142,"o":"m 607 -22 q 343 10 464 -22 q 137 104 222 43 q 13 249 51 165 l 364 340 q 469 256 401 283 q 618 229 536 229 q 747 283 747 229 q 688 332 747 321 q 543 347 629 343 q 409 357 479 350 q 272 381 339 364 q 151 431 206 399 q 65 517 97 464 q 32 651 32 571 q 94 838 32 761 q 272 954 157 914 q 543 994 386 994 q 798 965 681 994 q 1001 881 915 936 q 1128 751 1086 826 l 768 657 q 713 706 750 688 q 631 734 675 725 q 544 743 586 743 q 458 730 490 743 q 426 690 426 717 q 482 646 426 656 q 619 633 538 636 q 754 626 683 631 q 894 606 825 621 q 1019 560 963 592 q 1108 474 1075 529 q 1142 333 1142 419 q 1076 145 1142 225 q 892 22 1011 65 q 607 -22 772 -22 z "},"T":{"ha":988,"x_min":14,"x_max":974,"o":"m 300 0 l 300 650 l 14 650 l 14 972 l 974 972 l 974 650 l 689 650 l 689 0 l 300 0 z "},"U":{"ha":1131,"x_min":47,"x_max":1083,"o":"m 565 -22 q 182 87 317 -22 q 47 397 47 196 l 47 972 l 436 972 l 436 426 q 565 275 436 275 q 694 426 694 275 l 694 972 l 1083 972 l 1083 397 q 949 87 1083 196 q 565 -22 814 -22 z "},"V":{"ha":1197,"x_min":-12,"x_max":1210,"o":"m 349 0 l -12 972 l 399 972 l 594 321 l 799 972 l 1210 972 l 849 0 l 349 0 z "},"W":{"ha":1778,"x_min":-8,"x_max":1786,"o":"m 300 0 l -8 972 l 394 972 l 550 421 l 708 972 l 1069 972 l 1225 397 l 1389 972 l 1786 972 l 1478 0 l 1018 0 l 889 478 l 751 0 l 300 0 z "},"X":{"ha":1108,"x_min":-15,"x_max":1124,"o":"m -15 0 l 313 486 l -15 972 l 425 972 l 551 746 l 686 972 l 1124 972 l 800 486 l 1124 0 l 686 0 l 551 226 l 425 0 l -15 0 z "},"Y":{"ha":1107,"x_min":-17,"x_max":1122,"o":"m 358 0 l 358 385 l -17 972 l 424 972 l 550 739 l 685 972 l 1122 972 l 747 385 l 747 0 l 358 0 z "},"Z":{"ha":1029,"x_min":26,"x_max":993,"o":"m 539 301 l 993 301 l 993 0 l 26 0 l 26 260 l 475 671 l 54 671 l 54 972 l 988 972 l 988 713 l 539 301 z "},"a":{"ha":982,"x_min":24,"x_max":935,"o":"m 335 -22 q 176 21 247 -22 q 65 141 106 64 q 24 317 24 218 l 24 378 q 65 554 24 478 q 176 674 106 631 q 335 717 247 717 q 478 678 415 717 q 576 565 540 639 l 588 565 l 588 694 l 935 694 l 935 0 l 588 0 l 588 129 l 576 129 q 478 17 540 56 q 335 -22 415 -22 m 478 229 q 547 255 519 229 q 574 317 574 281 l 574 378 q 547 440 574 414 q 478 465 519 465 q 410 440 439 465 q 382 378 382 414 l 382 317 q 410 255 382 281 q 478 229 439 229 z "},"b":{"ha":982,"x_min":47,"x_max":958,"o":"m 47 972 l 408 972 l 408 574 q 506 678 444 639 q 647 717 568 717 q 806 673 736 717 q 917 553 876 629 q 958 378 958 476 l 958 317 q 917 141 958 218 q 806 21 876 64 q 647 -22 736 -22 q 504 17 567 -22 q 406 129 442 56 l 394 129 l 394 0 l 47 0 l 47 972 m 504 465 q 435 440 463 465 q 408 378 408 414 l 408 317 q 435 255 408 281 q 504 229 463 229 q 572 255 544 229 q 600 317 600 281 l 600 378 q 572 440 600 414 q 504 465 544 465 z "},"c":{"ha":878,"x_min":22,"x_max":871,"o":"m 22 378 q 77 553 22 476 q 230 673 132 629 q 454 717 328 717 q 655 681 567 717 q 799 583 743 646 q 871 436 856 519 l 543 385 q 513 446 535 421 q 454 471 492 471 q 388 445 415 471 q 361 383 361 419 l 361 311 q 388 249 361 275 q 454 224 415 224 q 513 249 492 224 q 543 310 535 274 l 871 258 q 799 112 856 175 q 655 13 743 49 q 454 -22 567 -22 q 230 22 328 -22 q 77 142 132 65 q 22 317 22 218 l 22 378 z "},"d":{"ha":982,"x_min":24,"x_max":935,"o":"m 935 972 l 935 0 l 588 0 l 588 129 l 576 129 q 478 17 540 56 q 335 -22 415 -22 q 176 21 247 -22 q 65 141 106 64 q 24 317 24 218 l 24 378 q 65 553 24 476 q 176 673 106 629 q 335 717 247 717 q 476 678 414 717 q 574 574 538 639 l 574 972 l 935 972 m 478 465 q 410 440 439 465 q 382 378 382 414 l 382 317 q 410 255 382 281 q 478 229 439 229 q 547 255 519 229 q 574 317 574 281 l 574 378 q 547 440 574 414 q 478 465 519 465 z "},"e":{"ha":917,"x_min":22,"x_max":894,"o":"m 894 199 q 717 35 831 92 q 460 -22 604 -22 q 232 21 331 -22 q 78 141 133 64 q 22 317 22 218 l 22 378 q 78 553 22 476 q 232 673 133 629 q 460 717 331 717 q 685 673 588 717 q 839 553 783 629 q 894 378 894 476 l 894 296 l 356 296 q 390 228 360 256 q 465 201 419 201 q 534 217 501 201 q 588 261 567 233 l 894 199 m 460 493 q 394 471 422 493 q 358 415 367 449 l 560 415 q 524 471 551 449 q 460 493 497 493 z "},"f":{"ha":699,"x_min":17,"x_max":683,"o":"m 17 694 l 128 694 q 158 838 128 781 q 238 930 188 896 q 351 979 288 964 q 483 994 415 994 q 585 988 535 994 q 683 968 636 981 l 683 758 q 595 771 640 769 q 519 756 550 772 q 489 694 489 740 l 683 694 l 683 431 l 489 431 l 489 0 l 128 0 l 128 431 l 17 431 l 17 694 z "},"g":{"ha":981,"x_min":22,"x_max":933,"o":"m 475 -76 q 540 -59 508 -76 q 572 10 572 -42 l 572 171 q 474 67 536 106 q 333 28 413 28 q 175 72 246 28 q 63 192 104 115 q 22 367 22 268 l 22 378 q 63 554 22 478 q 175 674 104 631 q 333 717 246 717 q 476 678 414 717 q 575 565 539 639 l 586 565 l 586 694 l 933 694 l 933 10 q 879 -153 933 -83 q 726 -262 825 -224 q 490 -300 626 -300 q 188 -237 301 -300 q 50 -61 74 -175 l 382 -17 q 419 -60 394 -44 q 475 -76 444 -76 m 476 279 q 545 305 518 279 q 572 367 572 331 l 572 378 q 545 440 572 414 q 476 465 518 465 q 409 440 438 465 q 381 378 381 414 l 381 367 q 409 305 381 331 q 476 279 438 279 z "},"h":{"ha":958,"x_min":47,"x_max":917,"o":"m 556 339 q 537 412 556 385 q 483 439 518 439 q 429 412 450 439 q 408 339 408 385 l 408 0 l 47 0 l 47 972 l 408 972 l 408 547 q 504 675 436 633 q 651 717 572 717 q 781 688 721 717 q 879 599 842 660 q 917 438 917 538 l 917 0 l 556 0 l 556 339 z "},"i":{"ha":456,"x_min":36,"x_max":419,"o":"m 36 972 l 419 972 l 419 764 l 36 764 l 36 972 m 47 694 l 408 694 l 408 0 l 47 0 l 47 694 z "},"j":{"ha":456,"x_min":-119,"x_max":419,"o":"m 36 972 l 419 972 l 419 764 l 36 764 l 36 972 m 51 -300 q -119 -281 -37 -300 l -119 -83 q -41 -90 -79 -90 q 22 -72 -3 -89 q 47 -14 47 -54 l 47 694 l 408 694 l 408 -14 q 358 -183 408 -121 q 226 -273 307 -246 q 51 -300 144 -300 z "},"k":{"ha":986,"x_min":47,"x_max":1014,"o":"m 47 0 l 47 972 l 408 972 l 408 532 l 578 694 l 1000 694 l 701 432 l 1014 0 l 585 0 l 454 215 l 408 175 l 408 0 l 47 0 z "},"l":{"ha":456,"x_min":47,"x_max":408,"o":"m 47 972 l 408 972 l 408 0 l 47 0 l 47 972 z "},"m":{"ha":1439,"x_min":47,"x_max":1397,"o":"m 47 694 l 394 694 l 394 514 l 406 514 q 456 632 419 588 q 544 697 493 676 q 650 717 596 717 q 804 669 736 717 q 894 514 872 621 q 951 632 913 588 q 1041 697 990 676 q 1146 717 1092 717 q 1269 688 1211 717 q 1362 599 1326 660 q 1397 438 1397 538 l 1397 0 l 1036 0 l 1036 339 q 1019 412 1036 385 q 971 439 1003 439 q 922 412 940 439 q 903 339 903 385 l 903 0 l 542 0 l 542 339 q 525 412 542 385 q 476 439 508 439 q 427 412 446 439 q 408 339 408 385 l 408 0 l 47 0 l 47 694 z "},"n":{"ha":958,"x_min":47,"x_max":917,"o":"m 47 694 l 394 694 l 394 514 l 406 514 q 495 671 426 625 q 651 717 564 717 q 781 688 721 717 q 879 599 842 660 q 917 438 917 538 l 917 0 l 556 0 l 556 339 q 537 412 556 385 q 483 439 518 439 q 429 412 450 439 q 408 339 408 385 l 408 0 l 47 0 l 47 694 z "},"o":{"ha":925,"x_min":22,"x_max":903,"o":"m 22 317 l 22 378 q 78 553 22 476 q 234 673 135 629 q 463 717 333 717 q 691 673 592 717 q 847 553 790 629 q 903 378 903 476 l 903 317 q 847 141 903 218 q 691 21 790 64 q 463 -22 592 -22 q 234 21 333 -22 q 78 141 135 64 q 22 317 22 218 m 463 465 q 397 440 424 465 q 369 378 369 414 l 369 317 q 397 255 369 281 q 463 229 424 229 q 529 255 503 229 q 556 317 556 281 l 556 378 q 529 440 556 414 q 463 465 503 465 z "},"p":{"ha":982,"x_min":47,"x_max":958,"o":"m 47 -278 l 47 694 l 394 694 l 394 565 l 406 565 q 504 678 442 639 q 647 717 567 717 q 806 674 736 717 q 917 554 876 631 q 958 378 958 478 l 958 317 q 917 142 958 218 q 806 22 876 65 q 647 -22 736 -22 q 506 17 568 -22 q 408 121 444 56 l 408 -278 l 47 -278 m 504 229 q 572 255 544 229 q 600 317 600 281 l 600 378 q 572 440 600 414 q 504 465 544 465 q 435 440 463 465 q 408 378 408 414 l 408 317 q 435 255 408 281 q 504 229 463 229 z "},"q":{"ha":982,"x_min":24,"x_max":935,"o":"m 935 -278 l 574 -278 l 574 121 q 476 17 538 56 q 335 -22 414 -22 q 176 22 247 -22 q 65 142 106 65 q 24 317 24 218 l 24 378 q 65 554 24 478 q 176 674 106 631 q 335 717 247 717 q 478 678 415 717 q 576 565 540 639 l 588 565 l 588 694 l 935 694 l 935 -278 m 478 229 q 547 255 519 229 q 574 317 574 281 l 574 378 q 547 440 574 414 q 478 465 519 465 q 410 440 439 465 q 382 378 382 414 l 382 317 q 410 255 382 281 q 478 229 439 229 z "},"r":{"ha":693,"x_min":47,"x_max":674,"o":"m 47 694 l 394 694 l 394 497 l 406 497 q 467 628 426 581 q 563 697 508 676 q 674 717 617 717 l 674 382 q 408 213 408 424 l 408 0 l 47 0 l 47 694 z "},"s":{"ha":867,"x_min":-4,"x_max":856,"o":"m 229 247 q 294 197 254 214 q 375 172 333 179 q 446 165 417 165 q 517 196 517 165 q 490 223 517 214 q 421 238 463 232 q 325 250 378 243 q 219 270 272 257 q 123 307 167 283 q 52 369 79 331 q 25 467 25 408 q 80 606 25 551 q 224 689 135 661 q 417 717 314 717 q 579 700 497 717 q 731 649 661 683 q 846 565 801 615 l 617 453 q 524 515 578 501 q 432 529 471 529 q 380 520 396 529 q 364 499 364 511 q 390 472 364 481 q 456 458 415 463 q 551 447 499 453 q 658 431 604 442 q 756 396 711 419 q 828 332 800 372 q 856 228 856 292 q 820 108 856 156 q 726 31 785 60 q 593 -10 667 3 q 442 -22 519 -22 q 183 14 301 -22 q -4 133 65 50 l 229 247 z "},"t":{"ha":708,"x_min":18,"x_max":678,"o":"m 18 694 l 129 694 l 129 833 l 490 972 l 490 694 l 678 694 l 678 431 l 490 431 l 490 314 q 513 258 490 275 q 567 242 535 242 q 622 250 593 242 q 678 271 651 258 l 678 25 q 555 -10 615 1 q 439 -22 494 -22 q 280 9 350 -22 q 169 103 210 40 q 129 260 129 167 l 129 431 l 18 431 l 18 694 z "},"u":{"ha":958,"x_min":42,"x_max":911,"o":"m 911 0 l 564 0 l 564 181 l 553 181 q 463 24 532 69 q 307 -22 394 -22 q 178 6 239 -22 q 79 97 117 35 q 42 257 42 158 l 42 694 l 403 694 l 403 356 q 422 283 403 310 q 475 256 440 256 q 529 283 508 256 q 550 356 550 310 l 550 694 l 911 694 l 911 0 z "},"v":{"ha":922,"x_min":-8,"x_max":931,"o":"m 272 0 l -8 694 l 367 694 l 458 392 l 557 694 l 931 694 l 650 0 l 272 0 z "},"w":{"ha":1250,"x_min":-6,"x_max":1256,"o":"m 229 0 l -6 694 l 344 694 l 419 389 l 501 694 l 747 694 l 826 388 l 906 694 l 1256 694 l 1022 0 l 713 0 l 625 292 l 539 0 l 229 0 z "},"x":{"ha":906,"x_min":-18,"x_max":924,"o":"m -18 0 l 236 347 l -18 694 l 374 694 l 450 543 l 535 694 l 924 694 l 672 347 l 924 0 l 535 0 l 449 151 l 372 0 l -18 0 z "},"y":{"ha":921,"x_min":-8,"x_max":931,"o":"m 47 -265 l 47 -32 q 128 -55 88 -44 q 204 -65 168 -65 q 249 -60 228 -65 q 288 -40 269 -54 l -8 694 l 365 694 l 458 392 l 556 694 l 931 694 l 619 -72 q 483 -247 571 -193 q 268 -300 394 -300 q 166 -292 224 -300 q 47 -265 108 -285 z "},"z":{"ha":815,"x_min":26,"x_max":783,"o":"m 26 0 l 26 222 l 321 431 l 47 431 l 47 694 l 775 694 l 775 472 l 482 264 l 783 264 l 783 0 l 26 0 z "}," ":{"ha":236,"x_min":0,"x_max":0,"o":""},".":{"ha":414,"x_min":40,"x_max":374,"o":"m 40 0 l 40 333 l 374 333 l 374 0 l 40 0 z "},",":{"ha":414,"x_min":42,"x_max":375,"o":"m 42 0 l 169 111 l 42 111 l 42 444 l 375 444 l 375 104 l 299 0 l 42 0 z "},":":{"ha":382,"x_min":44,"x_max":338,"o":"m 44 401 l 44 694 l 338 694 l 338 401 l 44 401 m 44 0 l 44 293 l 338 293 l 338 0 l 44 0 z "},";":{"ha":382,"x_min":44,"x_max":338,"o":"m 44 439 l 44 694 l 338 694 l 338 439 l 44 439 m 44 0 l 157 97 l 44 97 l 44 331 l 338 331 l 338 92 l 271 0 l 44 0 z "},"…":{"ha":1192,"x_min":40,"x_max":1151,"o":"m 429 0 l 429 333 l 763 333 l 763 0 l 429 0 m 818 0 l 818 333 l 1151 333 l 1151 0 l 818 0 m 40 0 l 40 333 l 374 333 l 374 0 l 40 0 z "},"!":{"ha":433,"x_min":50,"x_max":383,"o":"m 133 403 l 50 606 l 50 972 l 383 972 l 383 606 l 300 403 l 133 403 m 50 0 l 50 333 l 383 333 l 383 0 l 50 0 z "},"?":{"ha":976,"x_min":8,"x_max":951,"o":"m 951 700 q 879 547 951 600 q 679 475 807 494 l 679 404 l 346 404 l 346 610 l 433 610 q 538 625 499 610 q 576 674 576 640 q 544 724 576 706 q 461 743 513 743 q 366 717 406 743 q 294 639 326 692 l 8 750 q 133 890 56 836 q 305 969 210 943 q 499 994 400 994 q 665 976 585 994 q 810 922 746 958 q 913 831 875 886 q 951 700 951 775 m 346 0 l 346 333 l 679 333 l 679 0 l 346 0 z "},"·":{"ha":414,"x_min":40,"x_max":374,"o":"m 40 322 l 40 656 l 374 656 l 374 322 l 40 322 z "},"•":{"ha":578,"x_min":24,"x_max":554,"o":"m 289 194 q 155 230 215 194 q 59 326 94 265 q 24 460 24 386 q 59 594 24 533 q 155 690 94 654 q 289 725 215 725 q 423 690 363 725 q 519 594 483 654 q 554 460 554 533 q 519 326 554 386 q 423 230 483 265 q 289 194 363 194 z "},"*":{"ha":636,"x_min":0,"x_max":636,"o":"m 211 381 l 60 501 l 185 633 l 0 679 l 64 861 l 239 781 l 222 972 l 414 972 l 397 781 l 572 861 l 636 679 l 451 633 l 576 501 l 425 381 l 318 547 l 211 381 z "},"#":{"ha":1161,"x_min":22,"x_max":1139,"o":"m 22 417 l 192 417 l 217 556 l 78 556 l 78 792 l 261 792 l 296 972 l 579 972 l 544 792 l 731 792 l 765 972 l 1049 972 l 1014 792 l 1139 792 l 1139 556 l 969 556 l 944 417 l 1083 417 l 1083 181 l 900 181 l 865 0 l 582 0 l 617 181 l 431 181 l 396 0 l 113 0 l 147 181 l 22 181 l 22 417 m 475 417 l 661 417 l 686 556 l 500 556 l 475 417 z "},"/":{"ha":574,"x_min":10,"x_max":564,"o":"m 289 972 l 564 972 l 285 0 l 10 0 l 289 972 z "},"\\":{"ha":574,"x_min":10,"x_max":564,"o":"m 285 972 l 564 0 l 289 0 l 10 972 l 285 972 z "},"-":{"ha":664,"x_min":40,"x_max":624,"o":"m 40 263 l 40 529 l 624 529 l 624 263 l 40 263 z "},"–":{"ha":969,"x_min":40,"x_max":929,"o":"m 40 263 l 40 529 l 929 529 l 929 263 l 40 263 z "},"—":{"ha":1553,"x_min":40,"x_max":1513,"o":"m 40 263 l 40 529 l 1513 529 l 1513 263 l 40 263 z "},"_":{"ha":850,"x_min":22,"x_max":828,"o":"m 22 -278 l 22 -39 l 828 -39 l 828 -278 l 22 -278 z "},"(":{"ha":528,"x_min":25,"x_max":519,"o":"m 432 -125 q 206 40 296 -57 q 70 249 115 136 q 25 479 25 363 q 70 710 25 597 q 206 920 115 824 q 432 1083 296 1017 l 519 1044 q 429 897 467 986 q 373 700 392 807 q 354 479 354 593 q 373 260 354 368 q 428 63 392 153 q 519 -82 465 -26 l 432 -125 z "},")":{"ha":528,"x_min":8,"x_max":503,"o":"m 96 -125 l 8 -82 q 99 63 63 -26 q 155 260 136 153 q 174 479 174 368 q 155 700 174 593 q 99 897 136 807 q 8 1044 63 986 l 96 1083 q 322 920 232 1017 q 458 710 413 824 q 503 479 503 597 q 458 249 503 363 q 322 40 413 136 q 96 -125 232 -57 z "},"{":{"ha":561,"x_min":25,"x_max":526,"o":"m 25 567 q 104 590 79 567 q 118 678 129 613 l 96 806 q 138 1020 69 957 q 394 1083 207 1083 l 526 1083 l 526 867 l 443 867 q 393 819 385 867 l 424 636 q 399 522 438 556 q 289 479 361 488 q 399 438 361 471 q 424 322 438 404 l 393 139 q 443 92 385 92 l 526 92 l 526 -125 l 394 -125 q 138 -62 207 -125 q 96 153 69 1 l 118 281 q 104 369 129 346 q 25 392 79 392 l 25 567 z "},"}":{"ha":561,"x_min":35,"x_max":536,"o":"m 536 567 l 536 392 q 457 369 482 392 q 443 281 432 346 l 465 153 q 423 -62 492 1 q 167 -125 354 -125 l 35 -125 l 35 92 l 118 92 q 168 139 176 92 l 138 322 q 162 438 124 404 q 272 479 200 471 q 162 522 200 488 q 138 636 124 556 l 168 819 q 118 867 176 867 l 35 867 l 35 1083 l 167 1083 q 423 1020 354 1083 q 465 806 492 957 l 443 678 q 457 590 432 613 q 536 567 482 567 z "},"[":{"ha":578,"x_min":56,"x_max":546,"o":"m 56 1083 l 546 1083 l 546 867 l 383 867 l 383 92 l 546 92 l 546 -125 l 56 -125 l 56 1083 z "},"]":{"ha":578,"x_min":32,"x_max":522,"o":"m 522 1083 l 522 -125 l 32 -125 l 32 92 l 194 92 l 194 867 l 32 867 l 32 1083 l 522 1083 z "},"‚":{"ha":414,"x_min":42,"x_max":375,"o":"m 42 0 l 169 111 l 42 111 l 42 444 l 375 444 l 375 104 l 299 0 l 42 0 z "},"„":{"ha":803,"x_min":42,"x_max":764,"o":"m 431 0 l 558 111 l 431 111 l 431 444 l 764 444 l 764 104 l 688 0 l 431 0 m 42 0 l 169 111 l 42 111 l 42 444 l 375 444 l 375 104 l 299 0 l 42 0 z "},"“":{"ha":792,"x_min":32,"x_max":754,"o":"m 754 972 l 599 778 l 754 778 l 754 444 l 421 444 l 421 785 l 581 972 l 754 972 m 365 972 l 210 778 l 365 778 l 365 444 l 32 444 l 32 785 l 192 972 l 365 972 z "},"”":{"ha":788,"x_min":39,"x_max":761,"o":"m 39 444 l 194 639 l 39 639 l 39 972 l 372 972 l 372 632 l 213 444 l 39 444 m 428 444 l 583 639 l 428 639 l 428 972 l 761 972 l 761 632 l 601 444 l 428 444 z "},"‘":{"ha":403,"x_min":32,"x_max":365,"o":"m 365 972 l 210 778 l 365 778 l 365 444 l 32 444 l 32 785 l 192 972 l 365 972 z "},"’":{"ha":399,"x_min":39,"x_max":372,"o":"m 39 444 l 194 639 l 39 639 l 39 972 l 372 972 l 372 632 l 213 444 l 39 444 z "},"\"":{"ha":639,"x_min":19,"x_max":619,"o":"m 19 972 l 308 972 l 271 565 l 57 565 l 19 972 m 331 972 l 619 972 l 582 565 l 368 565 l 331 972 z "},"'":{"ha":328,"x_min":19,"x_max":308,"o":"m 19 972 l 308 972 l 271 565 l 57 565 l 19 972 z "},"@":{"ha":1107,"x_min":28,"x_max":1082,"o":"m 492 193 q 335 263 394 193 q 275 442 275 332 q 303 583 275 514 q 388 697 331 651 q 529 742 444 742 q 626 720 586 742 q 689 663 665 699 l 696 697 l 869 697 l 801 375 q 831 332 793 332 q 881 355 853 332 q 931 425 910 378 q 951 543 951 472 q 903 719 951 647 q 774 829 856 792 q 592 867 692 867 q 371 811 465 867 q 224 660 276 756 q 172 443 172 564 q 220 241 172 326 q 353 109 268 156 q 546 63 438 63 q 657 77 601 63 q 767 126 713 92 l 843 24 q 693 -47 771 -28 q 540 -67 615 -67 q 274 -3 390 -67 q 93 175 158 60 q 28 443 28 290 q 70 662 28 561 q 189 837 113 763 q 368 953 265 911 q 592 994 471 994 q 850 936 740 994 q 1021 778 960 878 q 1082 553 1082 679 q 1040 367 1082 449 q 930 240 999 286 q 779 193 861 193 q 642 257 682 193 q 578 210 615 228 q 492 193 540 193 m 549 364 q 617 396 589 364 q 644 474 644 428 q 620 535 644 510 q 560 560 596 560 q 492 530 519 560 q 464 456 464 500 q 489 390 464 417 q 549 364 514 364 z "},"&":{"ha":1196,"x_min":24,"x_max":1194,"o":"m 896 692 l 604 692 l 790 472 q 829 593 813 524 l 1122 535 q 1072 376 1106 451 q 990 240 1039 301 l 1194 0 l 796 0 l 749 56 q 610 -4 683 14 q 457 -22 536 -22 q 238 17 336 -22 q 82 126 140 56 q 24 293 24 197 q 60 431 24 371 q 160 531 97 490 q 301 588 224 571 l 175 736 l 175 972 l 910 972 l 896 692 m 396 318 q 428 252 396 276 q 510 228 461 228 q 586 247 551 228 l 454 406 q 413 374 431 396 q 396 318 396 353 z "},"©":{"ha":1183,"x_min":25,"x_max":1158,"o":"m 592 -21 q 293 42 421 -21 q 95 219 165 106 q 25 488 25 333 q 95 754 25 640 q 293 931 165 868 q 592 994 421 994 q 891 931 764 994 q 1088 754 1018 868 q 1158 488 1158 640 q 1088 219 1158 333 q 891 42 1018 106 q 592 -21 764 -21 m 592 124 q 798 169 710 124 q 935 297 886 215 q 985 488 985 379 q 935 678 985 596 q 798 805 886 760 q 592 850 710 850 q 385 805 474 850 q 248 678 297 760 q 199 488 199 596 q 248 297 199 379 q 385 169 297 215 q 592 124 474 124 m 600 204 q 435 237 507 204 q 323 328 364 269 q 282 464 282 388 l 282 508 q 323 644 282 586 q 435 735 364 703 q 600 768 507 768 q 746 742 681 768 q 853 669 811 715 q 903 558 894 622 l 688 515 q 660 569 685 547 q 600 592 636 592 q 537 568 563 592 q 511 508 511 544 l 511 464 q 537 405 511 429 q 600 381 563 381 q 660 403 636 381 q 688 457 685 425 l 903 414 q 853 304 894 351 q 746 231 811 257 q 600 204 681 204 z "},"®":{"ha":735,"x_min":17,"x_max":718,"o":"m 367 367 q 183 406 261 367 q 60 515 104 444 q 17 681 17 586 q 60 846 17 775 q 183 956 104 917 q 367 994 261 994 q 552 956 474 994 q 674 846 631 917 q 718 681 718 775 q 674 515 718 586 q 552 406 631 444 q 367 367 474 367 m 367 456 q 544 517 478 456 q 610 681 610 579 q 544 844 610 782 q 367 906 478 906 q 190 844 257 906 q 124 681 124 782 q 190 517 124 579 q 367 456 257 456 m 221 528 l 221 832 l 436 832 q 506 805 481 832 q 532 729 532 778 q 471 633 532 653 l 532 528 l 389 528 l 346 628 l 344 628 l 344 528 l 221 528 m 385 740 l 344 740 l 344 701 l 385 701 q 403 721 403 701 q 385 740 403 740 z "},"™":{"ha":1342,"x_min":8,"x_max":1296,"o":"m 160 460 l 160 803 l 8 803 l 8 972 l 514 972 l 514 803 l 364 803 l 364 460 l 160 460 m 560 460 l 560 972 l 843 972 l 928 735 l 1014 972 l 1296 972 l 1296 460 l 1097 460 l 1097 724 l 1003 460 l 851 460 l 757 731 l 757 460 l 560 460 z "},"°":{"ha":613,"x_min":15,"x_max":597,"o":"m 15 714 l 15 757 q 53 880 15 826 q 156 964 90 933 q 306 994 221 994 q 457 964 392 994 q 560 880 522 933 q 597 757 597 826 l 597 714 q 560 591 597 644 q 457 507 522 538 q 306 476 392 476 q 156 507 221 476 q 53 591 90 538 q 15 714 15 644 m 306 825 q 251 805 274 825 q 229 756 229 785 l 229 715 q 251 666 229 686 q 306 646 274 646 q 361 666 339 646 q 383 715 383 686 l 383 756 q 361 805 383 785 q 306 825 339 825 z "},"|":{"ha":406,"x_min":57,"x_max":349,"o":"m 57 1083 l 349 1083 l 349 -160 l 57 -160 l 57 1083 z "},"$":{"ha":1074,"x_min":21,"x_max":1046,"o":"m 383 1111 l 656 1111 l 656 961 q 889 882 789 939 q 1033 740 989 825 l 707 650 q 656 697 690 679 q 582 724 622 715 q 504 732 542 732 q 426 719 456 732 q 397 682 397 706 q 433 643 397 654 q 526 629 468 632 q 653 623 583 626 q 791 608 722 619 q 917 567 860 596 q 1010 483 975 538 q 1046 340 1046 429 q 942 113 1046 201 q 656 4 838 24 l 656 -139 l 383 -139 l 383 17 q 156 106 251 43 q 21 258 61 168 l 340 347 q 435 266 374 292 q 571 240 496 240 q 688 292 688 240 q 652 333 688 321 q 559 349 617 344 q 433 359 501 354 q 294 377 364 364 q 167 421 225 390 q 74 506 110 451 q 39 649 39 560 q 131 858 39 775 q 383 964 222 942 l 383 1111 z "},"€":{"ha":1199,"x_min":32,"x_max":1176,"o":"m 32 465 l 129 465 l 129 507 l 32 507 l 32 618 l 138 618 q 228 815 158 731 q 408 947 299 900 q 654 994 517 994 q 904 947 792 994 q 1090 815 1017 900 q 1176 617 1163 731 l 814 539 q 759 646 804 603 q 649 689 714 689 q 572 669 606 689 q 521 618 539 650 l 675 618 l 675 507 l 500 507 l 500 465 l 675 465 l 675 354 l 521 354 q 572 303 539 322 q 649 283 606 283 q 759 326 714 283 q 814 433 804 369 l 1176 356 q 1090 158 1163 243 q 904 25 1017 72 q 654 -22 792 -22 q 408 25 517 -22 q 228 157 299 72 q 138 354 158 242 l 32 354 l 32 465 z "},"£":{"ha":1056,"x_min":22,"x_max":1042,"o":"m 22 401 l 22 563 l 201 563 q 214 643 208 603 q 290 842 232 764 q 436 957 347 919 q 632 994 525 994 q 808 967 724 994 q 953 886 892 940 q 1042 749 1015 832 l 715 650 q 640 721 690 721 q 601 703 619 721 q 576 629 583 686 q 567 563 572 596 l 847 563 l 847 401 l 538 401 q 510 281 525 342 l 1007 281 l 993 0 l 64 0 l 64 28 q 122 216 96 122 q 169 401 149 310 l 22 401 z "},"+":{"ha":694,"x_min":44,"x_max":650,"o":"m 242 82 l 242 279 l 44 279 l 44 490 l 242 490 l 242 688 l 453 688 l 453 490 l 650 490 l 650 279 l 453 279 l 453 82 l 242 82 z "},"−":{"ha":694,"x_min":44,"x_max":650,"o":"m 44 490 l 650 490 l 650 279 l 44 279 l 44 490 z "},"×":{"ha":694,"x_min":39,"x_max":656,"o":"m 39 225 l 199 385 l 39 544 l 188 693 l 347 533 l 507 693 l 656 544 l 496 385 l 656 225 l 507 76 l 347 236 l 188 76 l 39 225 z "},"=":{"ha":694,"x_min":44,"x_max":650,"o":"m 44 650 l 650 650 l 650 439 l 44 439 l 44 650 m 44 344 l 650 344 l 650 133 l 44 133 l 44 344 z "},"%":{"ha":1256,"x_min":18,"x_max":1238,"o":"m 18 686 l 18 757 q 50 880 18 826 q 138 964 82 933 q 267 994 194 994 q 396 964 340 994 q 483 880 451 933 q 515 757 515 826 l 515 686 q 483 563 515 617 q 396 479 451 510 q 267 449 340 449 q 138 479 194 449 q 50 563 82 510 q 18 686 18 617 m 792 972 l 1019 972 l 464 0 l 236 0 l 792 972 m 267 817 q 224 799 240 817 q 207 753 207 781 l 207 690 q 224 644 207 663 q 267 626 240 626 q 310 644 294 626 q 326 690 326 663 l 326 753 q 310 799 326 781 q 267 817 294 817 m 740 215 l 740 286 q 772 409 740 356 q 860 493 804 463 q 989 524 917 524 q 1118 493 1063 524 q 1206 409 1174 463 q 1238 286 1238 356 l 1238 215 q 1206 92 1238 146 q 1118 8 1174 39 q 989 -22 1063 -22 q 860 8 917 -22 q 772 92 804 39 q 740 215 740 146 m 989 346 q 946 328 963 346 q 929 282 929 310 l 929 219 q 946 174 929 192 q 989 156 963 156 q 1033 174 1017 156 q 1049 219 1049 192 l 1049 282 q 1033 328 1049 310 q 989 346 1017 346 z "}," ":{"ha":236,"x_min":0,"x_max":0,"o":""}," ":{"ha":694,"x_min":0,"x_max":0,"o":""}," ":{"ha":1389,"x_min":0,"x_max":0,"o":""}," ":{"ha":694,"x_min":0,"x_max":0,"o":""}," ":{"ha":1389,"x_min":0,"x_max":0,"o":""}," ":{"ha":463,"x_min":0,"x_max":0,"o":""}," ":{"ha":347,"x_min":0,"x_max":0,"o":""}," ":{"ha":231,"x_min":0,"x_max":0,"o":""}," ":{"ha":1119,"x_min":0,"x_max":0,"o":""}," ":{"ha":414,"x_min":0,"x_max":0,"o":""}," ":{"ha":174,"x_min":0,"x_max":0,"o":""}," ":{"ha":97,"x_min":0,"x_max":0,"o":""},"​":{"ha":0,"x_min":0,"x_max":0,"o":""}," ":{"ha":47,"x_min":0,"x_max":0,"o":""}," ":{"ha":308,"x_min":0,"x_max":0,"o":""}," ":{"ha":833,"x_min":0,"x_max":0,"o":""}," ":{"ha":833,"x_min":0,"x_max":0,"o":""},"¢":{"ha":878,"x_min":22,"x_max":871,"o":"m 22 517 q 101 721 22 635 q 311 839 179 807 l 311 972 l 583 972 l 583 842 q 776 745 700 815 q 871 575 851 675 l 543 524 q 513 585 535 560 q 454 610 492 610 q 388 584 415 610 q 361 522 361 558 l 361 450 q 388 388 361 414 q 454 363 415 363 q 513 388 492 363 q 543 449 535 413 l 871 397 q 776 227 851 297 q 583 131 700 157 l 583 0 l 311 0 l 311 133 q 101 251 179 165 q 22 456 22 338 l 22 517 z "},"¥":{"ha":1106,"x_min":-17,"x_max":1122,"o":"m 92 144 l 92 319 l 358 319 l 358 375 l 92 375 l 92 550 l 253 550 l -17 972 l 424 972 l 550 739 l 685 972 l 1122 972 l 853 550 l 1014 550 l 1014 375 l 747 375 l 747 319 l 1014 319 l 1014 144 l 747 144 l 747 0 l 358 0 l 358 144 l 92 144 z "},"÷":{"ha":694,"x_min":44,"x_max":650,"o":"m 233 554 l 233 769 l 460 769 l 460 554 l 233 554 m 44 490 l 650 490 l 650 279 l 44 279 l 44 490 m 233 0 l 233 215 l 460 215 l 460 0 l 233 0 z "},">":{"ha":693,"x_min":44,"x_max":649,"o":"m 44 481 l 44 685 l 649 474 l 649 279 l 44 68 l 44 272 l 363 376 l 44 481 z "},"<":{"ha":693,"x_min":44,"x_max":649,"o":"m 44 474 l 649 685 l 649 481 l 331 376 l 649 272 l 649 68 l 44 279 l 44 474 z "},"~":{"ha":733,"x_min":21,"x_max":713,"o":"m 485 444 q 547 466 521 444 q 599 518 572 488 l 713 388 q 614 280 669 326 q 483 233 558 233 q 408 247 440 233 q 350 279 376 261 q 300 311 324 297 q 249 325 276 325 q 188 303 214 325 q 135 251 163 282 l 21 382 q 119 490 64 443 q 250 536 175 536 q 325 522 293 536 q 383 490 357 508 q 434 458 410 472 q 485 444 458 444 z "},"^":{"ha":725,"x_min":42,"x_max":683,"o":"m 464 972 l 683 419 l 463 419 l 363 699 l 263 419 l 42 419 l 261 972 l 464 972 z "},"`":{"ha":503,"x_min":69,"x_max":433,"o":"m 69 1015 l 338 1015 l 433 790 l 228 790 l 69 1015 z "}}}
